{
	"nodes":[{
		"name":"Eye",
		"translation":[-30.631141662597658,
		346.8938903808594,
		-64.12680053710938],
		"rotation":[0.0,
		0.0,
		0.0,
		-1.0],
		"scale":[0.7200000286102295,
		1.0199999809265137,
		1.0],
		"mesh":0
	},
	{
		"name":"Camera",
		"translation":[1046.363525390625,
		367.6748352050781,
		-951.6839599609375],
		"rotation":[-0.02653941512107849,
		0.9054754376411438,
		0.05725979804992676,
		0.4196799099445343],
		"scale":[1.0,
		1.0,
		1.0],
		"camera":0
	},
	{
		"name":"Pigeon",
		"translation":[38.03506851196289,
		217.32113647460938,
		-57.092262268066409],
		"rotation":[0.0,
		0.0,
		0.0,
		-1.0],
		"scale":[1.0,
		1.0,
		1.0],
		"children":[3,
		6,
		7,
		9,
		11,
		13]
	},
	{
		"name":"Subdivision Surface.3",
		"translation":[-10.26675796508789,
		-27.0257625579834,
		-0.17848075926303864],
		"rotation":[0.0,
		0.0,
		0.0,
		-1.0],
		"scale":[1.0,
		1.0,
		1.0],
		"children":[4]
	},
	{
		"name":"Cube",
		"translation":[7.229440212249756,
		179.16860961914063,
		-62.191688537597659],
		"rotation":[0.0,
		0.0,
		0.4330897331237793,
		-0.9013507962226868],
		"scale":[1.0,
		1.0,
		1.0],
		"children":[5]
	},
	{
		"name":"Cube",
		"mesh":1
	},
	{
		"name":"Eye",
		"translation":[51.33378982543945,
		129.57273864746095,
		-7.034539699554443],
		"rotation":[0.0,
		0.0,
		0.0,
		-1.0],
		"scale":[0.7200000286102295,
		1.0199999809265137,
		1.0],
		"mesh":2
	},
	{
		"name":"Symmetry",
		"translation":[-10.26675796508789,
		-50.270050048828128,
		-8.247450828552246],
		"rotation":[0.0,
		0.0,
		0.0,
		-1.0],
		"scale":[1.0,
		1.0,
		1.0],
		"children":[8]
	},
	{
		"name":"Eye",
		"translation":[54.05972671508789,
		179.84278869628907,
		1.2129106521606446],
		"rotation":[0.0,
		0.0,
		0.0,
		-1.0],
		"scale":[0.5199999809265137,
		0.949999988079071,
		1.0],
		"mesh":3
	},
	{
		"name":"Subdivision Surface.2",
		"translation":[-10.26675796508789,
		-26.351659774780275,
		-0.17848075926303864],
		"rotation":[0.0,
		0.0,
		0.0,
		-1.0],
		"scale":[1.0,
		1.0,
		1.0],
		"children":[10]
	},
	{
		"name":"Wing",
		"translation":[88.50822448730469,
		-56.43816375732422,
		76.89493560791016],
		"rotation":[0.0,
		0.0,
		0.0,
		-1.0],
		"scale":[1.0,
		1.0,
		1.0],
		"mesh":4
	},
	{
		"name":"Subdivision Surface",
		"translation":[-10.26675796508789,
		-26.351659774780275,
		-0.17848075926303864],
		"rotation":[0.0,
		0.0,
		0.0,
		-1.0],
		"scale":[1.0,
		1.0,
		1.0],
		"children":[12]
	},
	{
		"name":"Pigeon",
		"translation":[0.0,
		51.29865264892578,
		0.0],
		"rotation":[0.0,
		0.0,
		0.0,
		-1.0],
		"scale":[1.0,
		1.0,
		1.0],
		"mesh":5
	},
	{
		"name":"Subdivision Surface.1",
		"translation":[-10.26675796508789,
		-26.351659774780275,
		-0.17848075926303864],
		"rotation":[0.0,
		0.0,
		0.0,
		-1.0],
		"scale":[1.0,
		1.0,
		1.0],
		"children":[14]
	},
	{
		"name":"Peak",
		"translation":[0.0,
		154.45733642578126,
		-56.10700225830078],
		"rotation":[0.0,
		0.0,
		0.0,
		-1.0],
		"scale":[1.0,
		1.0,
		1.0],
		"mesh":6
	}],
	"asset":{
		"version":"2.0",
		"generator":"Created using the official Cinema 4D glTF Exporter 1.000x284978"
	},
	"cameras":[{
		"type":"perspective",
		"perspective":{
			"znear":0.009999999776482582,
			"zfar":10000000000.0,
			"aspectRatio":1.7777777910232545,
			"yfov":0.4728805720806122
		}
	}],
	"scenes":[{
		"nodes":[0,
		1,
		2]
	}],
	"materials":[{
		"pbrMetallicRoughness":{
			"baseColorFactor":[0.1,
			0.1,
			0.1,
			1.0],
			"metallicFactor":1.0,
			"roughnessFactor":1.0
		},
		"emissiveFactor":[0.0,
		0.0,
		0.0],
		"name":"Plastic Black - Glossy",
		"alphaMode":"OPAQUE",
		"doubleSided":true
	},
	{
		"pbrMetallicRoughness":{
			"baseColorFactor":[0.970873786407767,
			0.9624314056563952,
			0.9497678345293373,
			1.0],
			"metallicFactor":0.3,
			"roughnessFactor":0.13999999999999999
		},
		"emissiveFactor":[0.0,
		0.0,
		0.0],
		"name":"White Glossy",
		"alphaMode":"OPAQUE",
		"doubleSided":true
	},
	{
		"pbrMetallicRoughness":{
			"baseColorFactor":[0.488,
			0.31232,
			0.441152,
			1.0],
			"metallicFactor":1.0,
			"roughnessFactor":1.0
		},
		"emissiveFactor":[0.0,
		0.0,
		0.0],
		"name":"Mat.1",
		"alphaMode":"OPAQUE",
		"doubleSided":true
	},
	{
		"pbrMetallicRoughness":{
			"baseColorFactor":[1.0,
			1.0,
			1.0,
			1.0],
			"metallicFactor":1.0,
			"roughnessFactor":1.0
		},
		"emissiveFactor":[0.0,
		0.0,
		0.0],
		"name":"",
		"alphaMode":"OPAQUE",
		"doubleSided":true
	}],
	"meshes":[{
		"name":"Eye",
		"primitives":[{
			"attributes":{
				"POSITION":1,
				"NORMAL":2,
				"TEXCOORD_0":3
			},
			"indices":0,
			"material":0
		}]
	},
	{
		"name":"Cube",
		"primitives":[{
			"attributes":{
				"POSITION":5,
				"NORMAL":6,
				"TEXCOORD_0":7
			},
			"indices":4,
			"material":1
		}]
	},
	{
		"name":"Eye",
		"primitives":[{
			"attributes":{
				"POSITION":9,
				"NORMAL":10,
				"TEXCOORD_0":11
			},
			"indices":8,
			"material":0
		}]
	},
	{
		"name":"Eye",
		"primitives":[{
			"attributes":{
				"POSITION":13,
				"NORMAL":14,
				"TEXCOORD_0":15
			},
			"indices":12
		}]
	},
	{
		"name":"Wing",
		"primitives":[{
			"attributes":{
				"POSITION":17,
				"NORMAL":18,
				"TEXCOORD_0":19
			},
			"indices":16,
			"material":1
		}]
	},
	{
		"name":"Pigeon",
		"primitives":[{
			"attributes":{
				"POSITION":21,
				"NORMAL":22,
				"TEXCOORD_0":23
			},
			"indices":20,
			"material":2
		}]
	},
	{
		"name":"Peak",
		"primitives":[{
			"attributes":{
				"POSITION":25,
				"NORMAL":26,
				"TEXCOORD_0":27
			},
			"indices":24,
			"material":3
		}]
	}],
	"accessors":[{
		"bufferView":0,
		"type":"SCALAR",
		"count":672,
		"componentType":5123,
		"byteOffset":0,
		"min":[0],
		"max":[150]
	},
	{
		"bufferView":1,
		"type":"VEC3",
		"count":151,
		"componentType":5126,
		"byteOffset":0,
		"min":[-24.35028648376465,
		-24.35028648376465,
		-24.35028648376465],
		"max":[24.35028648376465,
		24.35028648376465,
		24.35028648376465]
	},
	{
		"bufferView":1,
		"type":"VEC3",
		"count":151,
		"componentType":5126,
		"byteOffset":12,
		"min":[-0.9999999403953552,
		-1.0,
		-0.9999999403953552],
		"max":[0.9999999403953552,
		1.0,
		0.9999999403953552]
	},
	{
		"bufferView":1,
		"type":"VEC2",
		"count":151,
		"componentType":5126,
		"byteOffset":24,
		"min":[0.0,
		0.0],
		"max":[1.0,
		1.0]
	},
	{
		"bufferView":2,
		"type":"SCALAR",
		"count":1728,
		"componentType":5123,
		"byteOffset":0,
		"min":[0],
		"max":[387]
	},
	{
		"bufferView":3,
		"type":"VEC3",
		"count":388,
		"componentType":5126,
		"byteOffset":0,
		"min":[-11.104578971862793,
		-23.139984130859376,
		-4.315300464630127],
		"max":[14.060689926147461,
		3.1812312602996828,
		4.315300464630127]
	},
	{
		"bufferView":3,
		"type":"VEC3",
		"count":388,
		"componentType":5126,
		"byteOffset":12,
		"min":[-0.9984398484230042,
		-0.9975185394287109,
		-0.9999999403953552],
		"max":[0.9996836185455322,
		0.9982233047485352,
		0.9999999403953552]
	},
	{
		"bufferView":3,
		"type":"VEC2",
		"count":388,
		"componentType":5126,
		"byteOffset":24,
		"min":[0.0078125,
		0.0],
		"max":[0.9921875,
		1.0]
	},
	{
		"bufferView":4,
		"type":"SCALAR",
		"count":672,
		"componentType":5123,
		"byteOffset":0,
		"min":[0],
		"max":[150]
	},
	{
		"bufferView":5,
		"type":"VEC3",
		"count":151,
		"componentType":5126,
		"byteOffset":0,
		"min":[-24.35028648376465,
		-24.35028648376465,
		-24.35028648376465],
		"max":[24.35028648376465,
		24.35028648376465,
		24.35028648376465]
	},
	{
		"bufferView":5,
		"type":"VEC3",
		"count":151,
		"componentType":5126,
		"byteOffset":12,
		"min":[-0.9999999403953552,
		-1.0,
		-0.9999999403953552],
		"max":[0.9999999403953552,
		1.0,
		0.9999999403953552]
	},
	{
		"bufferView":5,
		"type":"VEC2",
		"count":151,
		"componentType":5126,
		"byteOffset":24,
		"min":[0.0,
		0.0],
		"max":[1.0,
		1.0]
	},
	{
		"bufferView":6,
		"type":"SCALAR",
		"count":1344,
		"componentType":5123,
		"byteOffset":0,
		"min":[0],
		"max":[301]
	},
	{
		"bufferView":7,
		"type":"VEC3",
		"count":302,
		"componentType":5126,
		"byteOffset":0,
		"min":[-241.43380737304688,
		-33.511775970458987,
		-33.511775970458987],
		"max":[33.511775970458987,
		33.511775970458987,
		33.511775970458987]
	},
	{
		"bufferView":7,
		"type":"VEC3",
		"count":302,
		"componentType":5126,
		"byteOffset":12,
		"min":[-0.9999999403953552,
		-1.0,
		-0.9999999403953552],
		"max":[1.0,
		1.0,
		0.9999999403953552]
	},
	{
		"bufferView":7,
		"type":"VEC2",
		"count":302,
		"componentType":5126,
		"byteOffset":24,
		"min":[0.0,
		0.0],
		"max":[1.0,
		1.0]
	},
	{
		"bufferView":8,
		"type":"SCALAR",
		"count":4608,
		"componentType":5123,
		"byteOffset":0,
		"min":[0],
		"max":[989]
	},
	{
		"bufferView":9,
		"type":"VEC3",
		"count":990,
		"componentType":5126,
		"byteOffset":0,
		"min":[-200.5729217529297,
		-52.30168914794922,
		-95.15542602539063],
		"max":[23.556472778320314,
		62.84729766845703,
		88.22948455810547]
	},
	{
		"bufferView":9,
		"type":"VEC3",
		"count":990,
		"componentType":5126,
		"byteOffset":12,
		"min":[-0.999431848526001,
		-0.9726540446281433,
		-0.9986027479171753],
		"max":[0.999431848526001,
		0.9941447973251343,
		0.9999946355819702]
	},
	{
		"bufferView":9,
		"type":"VEC2",
		"count":990,
		"componentType":5126,
		"byteOffset":24,
		"min":[0.0,
		0.0],
		"max":[1.0,
		1.0]
	},
	{
		"bufferView":10,
		"type":"SCALAR",
		"count":16320,
		"componentType":5123,
		"byteOffset":0,
		"min":[0],
		"max":[2918]
	},
	{
		"bufferView":11,
		"type":"VEC3",
		"count":2919,
		"componentType":5126,
		"byteOffset":0,
		"min":[-103.73031616210938,
		-242.26812744140626,
		-60.56968688964844],
		"max":[103.73030853271485,
		188.77764892578126,
		225.93374633789063]
	},
	{
		"bufferView":11,
		"type":"VEC3",
		"count":2919,
		"componentType":5126,
		"byteOffset":12,
		"min":[-0.9999995231628418,
		-0.9999884366989136,
		-1.0],
		"max":[0.999999463558197,
		0.9999999403953552,
		1.0]
	},
	{
		"bufferView":11,
		"type":"VEC2",
		"count":2919,
		"componentType":5126,
		"byteOffset":24,
		"min":[0.0,
		0.0],
		"max":[1.0,
		1.0]
	},
	{
		"bufferView":12,
		"type":"SCALAR",
		"count":960,
		"componentType":5123,
		"byteOffset":0,
		"min":[0],
		"max":[207]
	},
	{
		"bufferView":13,
		"type":"VEC3",
		"count":208,
		"componentType":5126,
		"byteOffset":0,
		"min":[-17.916337966918947,
		-16.885730743408204,
		-41.34788131713867],
		"max":[17.916337966918947,
		17.322254180908204,
		16.57024383544922]
	},
	{
		"bufferView":13,
		"type":"VEC3",
		"count":208,
		"componentType":5126,
		"byteOffset":12,
		"min":[-0.9965782165527344,
		-0.9957630038261414,
		-0.999967098236084],
		"max":[0.9965782165527344,
		0.9994694590568543,
		1.0]
	},
	{
		"bufferView":13,
		"type":"VEC2",
		"count":208,
		"componentType":5126,
		"byteOffset":24,
		"min":[0.03125,
		0.03125],
		"max":[0.96875,
		0.96875]
	}],
	"bufferViews":[{
		"buffer":0,
		"byteOffset":0,
		"byteLength":1344,
		"target":34963
	},
	{
		"buffer":0,
		"byteOffset":1344,
		"byteLength":4832,
		"target":34962,
		"byteStride":32
	},
	{
		"buffer":1,
		"byteOffset":0,
		"byteLength":3456,
		"target":34963
	},
	{
		"buffer":1,
		"byteOffset":3456,
		"byteLength":12416,
		"target":34962,
		"byteStride":32
	},
	{
		"buffer":2,
		"byteOffset":0,
		"byteLength":1344,
		"target":34963
	},
	{
		"buffer":2,
		"byteOffset":1344,
		"byteLength":4832,
		"target":34962,
		"byteStride":32
	},
	{
		"buffer":3,
		"byteOffset":0,
		"byteLength":2688,
		"target":34963
	},
	{
		"buffer":3,
		"byteOffset":2688,
		"byteLength":9664,
		"target":34962,
		"byteStride":32
	},
	{
		"buffer":4,
		"byteOffset":0,
		"byteLength":9216,
		"target":34963
	},
	{
		"buffer":4,
		"byteOffset":9216,
		"byteLength":31680,
		"target":34962,
		"byteStride":32
	},
	{
		"buffer":5,
		"byteOffset":0,
		"byteLength":32640,
		"target":34963
	},
	{
		"buffer":5,
		"byteOffset":32640,
		"byteLength":93408,
		"target":34962,
		"byteStride":32
	},
	{
		"buffer":6,
		"byteOffset":0,
		"byteLength":1920,
		"target":34963
	},
	{
		"buffer":6,
		"byteOffset":1920,
		"byteLength":6656,
		"target":34962,
		"byteStride":32
	}],
	"buffers":[{
		"uri":"data:application/octet-stream;base64,",
		"byteLength":6176
	},
	{
		"uri":"data:application/octet-stream;base64,",
		"byteLength":15872
	},
	{
		"uri":"data:application/octet-stream;base64,",
		"byteLength":6176
	},
	{
		"uri":"data:application/octet-stream;base64,",
		"byteLength":12352
	},
	{
		"uri":"data:application/octet-stream;base64,",
		"byteLength":40896
	},
	{
		"uri":"data:application/octet-stream;base64,",
		"byteLength":126048
	},
	{
		"uri":"data:application/octet-stream;base64,",
		"byteLength":8576
	}]
}